Coordinates
version=1
nRows=14
nColumns=40
inDegrees=yes

Units are S.I. units (second, meters, Newtons, ...)
If the header above contains a line with 'inDegrees', this indicates whether rotational values are in degrees (yes) or radians (no).

endheader
time	pelvis_tilt	pelvis_list	pelvis_rotation	pelvis_tx	pelvis_ty	pelvis_tz	hip_flexion_r	hip_adduction_r	hip_rotation_r	knee_angle_r	knee_angle_r_beta	ankle_angle_r	subtalar_angle_r	mtp_angle_r	hip_flexion_l	hip_adduction_l	hip_rotation_l	knee_angle_l	knee_angle_l_beta	ankle_angle_l	subtalar_angle_l	mtp_angle_l	lumbar_extension	lumbar_bending	lumbar_rotation	arm_flex_r	arm_add_r	arm_rot_r	elbow_flex_r	pro_sup_r	wrist_flex_r	wrist_dev_r	arm_flex_l	arm_add_l	arm_rot_l	elbow_flex_l	pro_sup_l	wrist_flex_l	wrist_dev_l
      6.00000000	     -3.42846424	     -1.65829135	     -0.26027504	     -0.33709701	      0.93803790	     -1.01908603	     35.21776054	    -10.49094654	     -3.05166923	    112.44708818	      1.96257192	    -10.04185743	      0.00000000	      0.00000000	     13.88937915	      2.45060781	     -7.30515930	     16.12138749	      0.28137129	     -4.12021152	      0.00000000	      0.00000000	    -12.49449337	     -0.29109886	      2.96220887	     73.21847447	    -17.50870354	     17.50265988	     22.68117554	     85.31301759	      0.00000000	      0.00000000	     72.39327148	    -27.39528196	     24.99717576	     35.72532009	     85.73550417	      0.00000000	      0.00000000
      6.00500000	     -3.55224062	     -1.57549556	     -0.18482439	     -0.33768740	      0.93774099	     -1.01922109	     35.19206697	    -10.60637271	     -3.05971891	    112.38348267	      1.96146180	    -10.04542498	      0.00000000	      0.00000000	     14.10194257	      2.56050125	     -7.16426409	     16.15339008	      0.28192984	     -4.23416987	      0.00000000	      0.00000000	    -12.53607822	     -0.40302452	      2.93933824	     73.30526183	    -17.70543762	     17.69639564	     22.96174846	     84.66959335	      0.00000000	      0.00000000	     72.76329708	    -27.34329046	     25.40123088	     35.61289133	     86.06802774	      0.00000000	      0.00000000
      6.01000000	     -3.70056879	     -1.61482684	     -0.19216546	     -0.33827748	      0.93735620	     -1.01917589	     35.20595863	    -10.52568316	     -3.09405916	    112.32927907	      1.96051577	    -10.01479535	      0.00000000	      0.00000000	     14.43904737	      2.47382509	     -7.45137442	     16.42299959	      0.28663542	     -4.15353825	      0.00000000	      0.00000000	    -12.53490435	     -0.34889170	      2.78436323	     73.68952031	    -17.44333889	     17.67920835	     22.64665987	     85.11418382	      0.00000000	      0.00000000	     72.82911763	    -27.45716051	     24.98885679	     35.66163755	     85.83635293	      0.00000000	      0.00000000
      6.01500000	     -3.88108799	     -1.64661529	     -0.10544343	     -0.33894362	      0.93698328	     -1.01929894	     35.21343013	    -10.51652742	     -3.18353499	    112.23256151	      1.95882773	    -10.01398082	      0.00000000	      0.00000000	     14.82038119	      2.42672712	     -7.45083843	     16.71790997	      0.29178257	     -4.06357858	      0.00000000	      0.00000000	    -12.50951528	     -0.30644798	      2.74011964	     73.88326754	    -17.49085183	     17.70420406	     22.65783350	     85.06992503	      0.00000000	      0.00000000	     73.05382993	    -27.44796954	     25.15210712	     35.65135778	     85.93564496	      0.00000000	      0.00000000
      6.02000000	     -3.97044321	     -1.62587243	      0.03364138	     -0.33954394	      0.93667736	     -1.01947958	     35.12230419	    -10.58617474	     -3.28969773	    112.19409743	      1.95815640	     -9.90209136	      0.00000000	      0.00000000	     14.99633088	      2.50357259	     -7.07017400	     16.75295339	      0.29239420	     -4.09907830	      0.00000000	      0.00000000	    -12.59929445	     -0.31799224	      2.53695777	     74.04271461	    -17.48949828	     18.05921248	     22.86384328	     83.41991409	      0.00000000	      0.00000000	     73.35765824	    -27.54775047	     25.36594240	     35.61652459	     86.53635744	      0.00000000	      0.00000000
      6.02500000	     -4.18018823	     -1.63122828	     -0.00543684	     -0.34023893	      0.93620547	     -1.01934530	     35.23618554	    -10.47355203	     -3.23012308	    112.15795130	      1.95752553	     -9.94643360	      0.00000000	      0.00000000	     15.41297792	      2.44622274	     -7.31567241	     17.01433208	      0.29695611	     -4.08307522	      0.00000000	      0.00000000	    -12.54231681	     -0.34912453	      2.55301947	     74.32312366	    -17.45594257	     17.75220666	     22.65424158	     85.39334264	      0.00000000	      0.00000000	     73.62517188	    -27.50241347	     25.47438567	     35.49841052	     85.67942829	      0.00000000	      0.00000000
      6.03000000	     -4.34413184	     -1.67877150	      0.04454955	     -0.34093206	      0.93576255	     -1.01932507	     35.25788117	    -10.39646424	     -3.28639248	    112.12142701	      1.95688806	     -9.91220952	      0.00000000	      0.00000000	     15.81499707	      2.36026218	     -7.33911003	     17.39534205	      0.30360599	     -3.92766002	      0.00000000	      0.00000000	    -12.54244779	     -0.30921355	      2.48624204	     74.58224149	    -17.44192138	     17.96036535	     22.60637612	     85.22043912	      0.00000000	      0.00000000	     73.90801795	    -27.47946482	     25.53138597	     35.32726089	     85.86082336	      0.00000000	      0.00000000
      6.03500000	     -4.50783248	     -1.68584672	      0.06040804	     -0.34149129	      0.93535687	     -1.01932273	     35.27824037	    -10.35398806	     -3.30054486	    112.08234001	      1.95620587	     -9.97841915	      0.00000000	      0.00000000	     16.15983600	      2.33147562	     -7.43475044	     17.64785177	      0.30801312	     -3.90015250	      0.00000000	      0.00000000	    -12.52455602	     -0.31588376	      2.48368944	     74.75682017	    -17.47827631	     18.00739143	     22.61368966	     85.21515815	      0.00000000	      0.00000000	     74.10794755	    -27.41358519	     25.51126983	     35.30870357	     85.80438595	      0.00000000	      0.00000000
      6.04000000	     -4.65261441	     -1.68246396	      0.12887097	     -0.34213127	      0.93494715	     -1.01941420	     35.23796037	    -10.35158515	     -3.32674058	    112.02737317	      1.95524651	     -9.91953017	      0.00000000	      0.00000000	     16.51869753	      2.32733472	     -7.38724253	     17.93515102	      0.31302744	     -3.86977782	      0.00000000	      0.00000000	    -12.55255725	     -0.32220199	      2.37782335	     75.00226439	    -17.47256823	     18.15942833	     22.62834684	     85.18174034	      0.00000000	      0.00000000	     74.40011572	    -27.46881120	     25.71318329	     35.21244537	     85.83307495	      0.00000000	      0.00000000
      6.04500000	     -4.75925898	     -1.72942814	      0.18658085	     -0.34275749	      0.93452907	     -1.01940750	     35.15881020	    -10.29232024	     -3.40124523	    111.97641611	      1.95435715	     -9.88291907	      0.00000000	      0.00000000	     16.83830206	      2.26933803	     -7.29709295	     18.22532900	      0.31809200	     -3.82360279	      0.00000000	      0.00000000	    -12.61446316	     -0.27874739	      2.36048312	     75.23025166	    -17.54271957	     18.23662609	     22.65434797	     85.20845732	      0.00000000	      0.00000000	     74.62780063	    -27.43366824	     25.70648960	     35.23458416	     85.82303723	      0.00000000	      0.00000000
      6.05000000	     -4.93483589	     -1.75999137	      0.21918907	     -0.34341423	      0.93406698	     -1.01937622	     35.16542121	    -10.20126890	     -3.42794099	    111.93814382	      1.95368917	     -9.80327468	      0.00000000	      0.00000000	     17.23510035	      2.21166429	     -7.30773511	     18.53557792	      0.32350686	     -3.74632695	      0.00000000	      0.00000000	    -12.59636814	     -0.26569953	      2.33152216	     75.44789768	    -17.57803726	     18.44230425	     22.64644696	     85.21424208	      0.00000000	      0.00000000	     74.92394952	    -27.41517002	     25.95006629	     35.12162268	     85.80071914	      0.00000000	      0.00000000
      6.05500000	     -5.03028129	     -1.76637249	      0.27774435	     -0.34395101	      0.93370601	     -1.01941799	     35.08685063	    -10.20753946	     -3.47229982	    111.87953347	      1.95266622	     -9.87136692	      0.00000000	      0.00000000	     17.54449797	      2.19026075	     -7.26533358	     18.86071039	      0.32918150	     -3.69421886	      0.00000000	      0.00000000	    -12.66812947	     -0.26039398	      2.25947062	     75.67808543	    -17.55263149	     18.43453275	     22.60926206	     85.15576693	      0.00000000	      0.00000000	     75.15055306	    -27.42272667	     25.97868203	     35.10373501	     85.83885946	      0.00000000	      0.00000000
      6.06000000	     -5.19423576	     -1.78263058	      0.35721838	     -0.34469453	      0.93314266	     -1.01951528	     35.08939085	    -10.18633672	     -3.51484954	    111.86874973	      1.95247801	     -9.81765248	      0.00000000	      0.00000000	     17.98563296	      2.16244417	     -7.19287439	     19.27570141	      0.33642446	     -3.58885604	      0.00000000	      0.00000000	    -12.68141546	     -0.24937131	      2.18834111	     75.95021382	    -17.57753396	     18.57943101	     22.53009789	     85.30020604	      0.00000000	      0.00000000	     75.47085087	    -27.44434548	     26.28897627	     35.06500618	     85.74268606	      0.00000000	      0.00000000
      6.06500000	     -5.33040616	     -1.83094590	      0.39441308	     -0.34543911	      0.93267576	     -1.01947528	     35.05850315	    -10.09844684	     -3.55939573	    111.82844141	      1.95177450	     -9.83065882	      0.00000000	      0.00000000	     18.35335834	      2.08200985	     -7.22146314	     19.59876951	      0.34206306	     -3.53493791	      0.00000000	      0.00000000	    -12.73676201	     -0.20339105	      2.14757026	     76.20572051	    -17.60421460	     18.81749283	     22.59986794	     85.03732454	      0.00000000	      0.00000000	     75.77609212	    -27.40428207	     26.30508430	     34.92083421	     85.89168955	      0.00000000	      0.00000000
